<svg width="438" height="195" viewBox="0 0 438 195" fill="none" xmlns="http://www.w3.org/2000/svg">
<g filter="url(#filter0_d_153_789)">
<path d="M55 60C55 48.9543 63.9543 40 75 40H363C374.046 40 383 48.9543 383 60V125H75C63.9543 125 55 116.046 55 105V60Z" fill="white"/>
</g>
<path d="M144.119 70H145.655V65.5604H149.98V64.2429H145.655V61.1406H150.433V59.8182H144.119V70ZM154.397 70.169C155.66 70.169 156.371 69.5277 156.654 68.956H156.714V70H158.166V64.929C158.166 62.7067 156.416 62.2642 155.203 62.2642C153.821 62.2642 152.548 62.821 152.051 64.2131L153.448 64.5312C153.667 63.9893 154.223 63.4673 155.223 63.4673C156.182 63.4673 156.674 63.9695 156.674 64.8345V64.8693C156.674 65.4112 156.118 65.4013 154.745 65.5604C153.299 65.7294 151.817 66.1072 151.817 67.8423C151.817 69.3438 152.946 70.169 154.397 70.169ZM154.721 68.9759C153.88 68.9759 153.274 68.598 153.274 67.8622C153.274 67.0668 153.98 66.7834 154.84 66.669C155.322 66.6044 156.466 66.4751 156.679 66.2614V67.2457C156.679 68.1506 155.958 68.9759 154.721 68.9759ZM165.868 64.228C165.56 63.0398 164.63 62.2642 162.98 62.2642C161.254 62.2642 160.031 63.174 160.031 64.5263C160.031 65.6101 160.688 66.331 162.119 66.6491L163.412 66.9325C164.148 67.0966 164.491 67.4247 164.491 67.902C164.491 68.4936 163.86 68.956 162.885 68.956C161.995 68.956 161.423 68.5732 161.244 67.8224L159.808 68.0412C160.056 69.3935 161.18 70.1541 162.895 70.1541C164.74 70.1541 166.017 69.1747 166.017 67.7926C166.017 66.7138 165.331 66.0476 163.929 65.7244L162.716 65.446C161.876 65.2472 161.513 64.9638 161.518 64.4467C161.513 63.8601 162.149 63.4425 162.994 63.4425C163.919 63.4425 164.347 63.9545 164.521 64.4666L165.868 64.228ZM171.216 62.3636H169.65V60.5341H168.164V62.3636H167.045V63.5568H168.164V68.0661C168.159 69.4531 169.218 70.1243 170.391 70.0994C170.863 70.0945 171.181 70.005 171.355 69.9403L171.087 68.7124C170.988 68.7322 170.804 68.777 170.565 68.777C170.083 68.777 169.65 68.6179 169.65 67.7578V63.5568H171.216V62.3636ZM176.07 70.1541C177.735 70.1541 178.914 69.3338 179.252 68.0909L177.845 67.8374C177.576 68.5582 176.93 68.9261 176.085 68.9261C174.812 68.9261 173.957 68.1009 173.917 66.6293H179.346V66.1023C179.346 63.343 177.695 62.2642 175.965 62.2642C173.838 62.2642 172.436 63.8849 172.436 66.2315C172.436 68.603 173.818 70.1541 176.07 70.1541ZM173.922 65.5156C173.982 64.4318 174.767 63.4922 175.975 63.4922C177.129 63.4922 177.884 64.3473 177.889 65.5156H173.922ZM180.995 70H182.482V65.3366C182.482 64.3374 183.252 63.6165 184.306 63.6165C184.615 63.6165 184.963 63.6712 185.082 63.706V62.2841C184.933 62.2642 184.64 62.2493 184.451 62.2493C183.556 62.2493 182.79 62.7564 182.512 63.5767H182.432V62.3636H180.995V70ZM191.56 65.4659C191.56 64.2479 192.331 63.5518 193.39 63.5518C194.414 63.5518 195.025 64.2031 195.025 65.3217V70H196.512V65.1428C196.512 63.2386 195.468 62.2642 193.897 62.2642C192.708 62.2642 191.993 62.7812 191.635 63.6065H191.54V59.8182H190.074V70H191.56V65.4659ZM198.495 70H199.982V62.3636H198.495V70ZM199.246 61.1854C199.758 61.1854 200.186 60.7876 200.186 60.3004C200.186 59.8132 199.758 59.4105 199.246 59.4105C198.729 59.4105 198.306 59.8132 198.306 60.3004C198.306 60.7876 198.729 61.1854 199.246 61.1854ZM201.982 70H203.468V65.3366C203.468 64.3374 204.239 63.6165 205.293 63.6165C205.601 63.6165 205.949 63.6712 206.068 63.706V62.2841C205.919 62.2642 205.626 62.2493 205.437 62.2493C204.542 62.2493 203.776 62.7564 203.498 63.5767H203.419V62.3636H201.982V70ZM207.355 70H208.841V62.3636H207.355V70ZM208.105 61.1854C208.618 61.1854 209.045 60.7876 209.045 60.3004C209.045 59.8132 208.618 59.4105 208.105 59.4105C207.588 59.4105 207.166 59.8132 207.166 60.3004C207.166 60.7876 207.588 61.1854 208.105 61.1854ZM212.328 65.4659C212.328 64.2479 213.073 63.5518 214.107 63.5518C215.117 63.5518 215.728 64.2131 215.728 65.3217V70H217.215V65.1428C217.215 63.2536 216.176 62.2642 214.615 62.2642C213.466 62.2642 212.715 62.7962 212.362 63.6065H212.268V62.3636H210.841V70H212.328V65.4659ZM222.41 73.0227C224.354 73.0227 225.855 72.1328 225.855 70.169V62.3636H224.399V63.6016H224.289C224.026 63.1293 223.499 62.2642 222.077 62.2642C220.232 62.2642 218.875 63.7209 218.875 66.152C218.875 68.5881 220.262 69.8857 222.067 69.8857C223.469 69.8857 224.011 69.0952 224.279 68.608H224.374V70.1094C224.374 71.3075 223.553 71.8246 222.425 71.8246C221.187 71.8246 220.705 71.2031 220.441 70.7656L219.164 71.2926C219.566 72.2273 220.585 73.0227 222.41 73.0227ZM222.395 68.6527C221.068 68.6527 220.377 67.6335 220.377 66.1321C220.377 64.6655 221.053 63.527 222.395 63.527C223.693 63.527 224.389 64.5859 224.389 66.1321C224.389 67.7081 223.678 68.6527 222.395 68.6527ZM231.554 72.8636H233.04V68.8118H233.13C233.398 69.299 233.945 70.1491 235.337 70.1491C237.187 70.1491 238.529 68.6676 238.529 66.1967C238.529 63.7209 237.167 62.2642 235.322 62.2642C233.906 62.2642 233.393 63.1293 233.13 63.6016H233.006V62.3636H231.554V72.8636ZM233.011 66.1818C233.011 64.5859 233.707 63.527 235.004 63.527C236.352 63.527 237.028 64.6655 237.028 66.1818C237.028 67.7131 236.332 68.8814 235.004 68.8814C233.727 68.8814 233.011 67.7876 233.011 66.1818ZM240.195 70H241.681V65.3366C241.681 64.3374 242.452 63.6165 243.506 63.6165C243.814 63.6165 244.162 63.6712 244.281 63.706V62.2841C244.132 62.2642 243.839 62.2493 243.65 62.2493C242.755 62.2493 241.989 62.7564 241.711 63.5767H241.631V62.3636H240.195V70ZM248.511 70.1541C250.664 70.1541 252.07 68.5781 252.07 66.2166C252.07 63.8402 250.664 62.2642 248.511 62.2642C246.358 62.2642 244.951 63.8402 244.951 66.2166C244.951 68.5781 246.358 70.1541 248.511 70.1541ZM248.516 68.9062C247.109 68.9062 246.453 67.6783 246.453 66.2116C246.453 64.75 247.109 63.5071 248.516 63.5071C249.913 63.5071 250.569 64.75 250.569 66.2116C250.569 67.6783 249.913 68.9062 248.516 68.9062ZM256.946 70.1541C258.751 70.1541 259.919 69.0703 260.083 67.5838H258.637C258.448 68.4091 257.806 68.8963 256.956 68.8963C255.699 68.8963 254.888 67.8473 254.888 66.1818C254.888 64.5462 255.713 63.517 256.956 63.517C257.901 63.517 258.478 64.1136 258.637 64.8295H260.083C259.924 63.2884 258.667 62.2642 256.931 62.2642C254.779 62.2642 253.387 63.8849 253.387 66.2166C253.387 68.5185 254.729 70.1541 256.946 70.1541ZM264.964 70.1541C266.63 70.1541 267.808 69.3338 268.146 68.0909L266.739 67.8374C266.471 68.5582 265.824 68.9261 264.979 68.9261C263.706 68.9261 262.851 68.1009 262.812 66.6293H268.241V66.1023C268.241 63.343 266.59 62.2642 264.86 62.2642C262.732 62.2642 261.33 63.8849 261.33 66.2315C261.33 68.603 262.712 70.1541 264.964 70.1541ZM262.817 65.5156C262.876 64.4318 263.662 63.4922 264.87 63.4922C266.023 63.4922 266.779 64.3473 266.784 65.5156H262.817ZM275.612 64.228C275.304 63.0398 274.374 62.2642 272.724 62.2642C270.999 62.2642 269.776 63.174 269.776 64.5263C269.776 65.6101 270.432 66.331 271.864 66.6491L273.156 66.9325C273.892 67.0966 274.235 67.4247 274.235 67.902C274.235 68.4936 273.604 68.956 272.629 68.956C271.739 68.956 271.168 68.5732 270.989 67.8224L269.552 68.0412C269.8 69.3935 270.924 70.1541 272.639 70.1541C274.484 70.1541 275.761 69.1747 275.761 67.7926C275.761 66.7138 275.075 66.0476 273.673 65.7244L272.46 65.446C271.62 65.2472 271.257 64.9638 271.262 64.4467C271.257 63.8601 271.893 63.4425 272.739 63.4425C273.663 63.4425 274.091 63.9545 274.265 64.4666L275.612 64.228ZM283.118 64.228C282.81 63.0398 281.88 62.2642 280.23 62.2642C278.504 62.2642 277.281 63.174 277.281 64.5263C277.281 65.6101 277.938 66.331 279.369 66.6491L280.662 66.9325C281.398 67.0966 281.741 67.4247 281.741 67.902C281.741 68.4936 281.11 68.956 280.135 68.956C279.245 68.956 278.673 68.5732 278.494 67.8224L277.058 68.0412C277.306 69.3935 278.43 70.1541 280.145 70.1541C281.99 70.1541 283.267 69.1747 283.267 67.7926C283.267 66.7138 282.581 66.0476 281.179 65.7244L279.966 65.446C279.126 65.2472 278.763 64.9638 278.768 64.4467C278.763 63.8601 279.399 63.4425 280.244 63.4425C281.169 63.4425 281.597 63.9545 281.771 64.4666L283.118 64.228Z" fill="#101010"/>
<path d="M146.75 91C149.409 91 150.909 89.3466 150.909 86.6193C150.909 83.9091 149.409 82.2727 146.869 82.2727H144.057V91H146.75ZM145.114 90.0625V83.2102H146.801C148.847 83.2102 149.886 84.5057 149.886 86.6193C149.886 88.75 148.847 90.0625 146.682 90.0625H145.114ZM155.205 91.1364C156.977 91.1364 158.17 89.7898 158.17 87.7614C158.17 85.7159 156.977 84.3693 155.205 84.3693C153.432 84.3693 152.239 85.7159 152.239 87.7614C152.239 89.7898 153.432 91.1364 155.205 91.1364ZM155.205 90.233C153.858 90.233 153.244 89.0739 153.244 87.7614C153.244 86.4489 153.858 85.2727 155.205 85.2727C156.551 85.2727 157.165 86.4489 157.165 87.7614C157.165 89.0739 156.551 90.233 155.205 90.233ZM160.711 87.0625C160.711 85.9205 161.419 85.2727 162.382 85.2727C163.315 85.2727 163.882 85.8821 163.882 86.9091V91H164.887V86.8409C164.887 85.1705 163.997 84.3693 162.672 84.3693C161.683 84.3693 161.069 84.8125 160.762 85.4773H160.677V84.4545H159.706V91H160.711V87.0625ZM167.594 82.2727H166.657V85.2727H167.594V82.2727ZM172.232 84.4545H170.834V82.8864H169.828V84.4545H168.84V85.3068H169.828V89.3977C169.828 90.5398 170.749 91.0852 171.601 91.0852C171.976 91.0852 172.215 91.017 172.351 90.9659L172.147 90.0625C172.061 90.0795 171.925 90.1136 171.703 90.1136C171.26 90.1136 170.834 89.9773 170.834 89.125V85.3068H172.232V84.4545ZM178.603 91H179.591L181.023 85.9716H181.125L182.557 91H183.546L185.54 84.4545H184.483L183.069 89.4489H183L181.62 84.4545H180.546L179.148 89.4659H179.08L177.665 84.4545H176.608L178.603 91ZM188.796 91.1534C189.938 91.1534 190.534 90.5398 190.739 90.1136H190.79V91H191.796V86.6875C191.796 84.608 190.211 84.3693 189.375 84.3693C188.387 84.3693 187.262 84.7102 186.75 85.9034L187.705 86.2443C187.926 85.767 188.451 85.2557 189.409 85.2557C190.334 85.2557 190.79 85.7457 190.79 86.5852V86.6193C190.79 87.1051 190.296 87.0625 189.103 87.2159C187.888 87.3736 186.563 87.642 186.563 89.142C186.563 90.4205 187.551 91.1534 188.796 91.1534ZM188.949 90.25C188.148 90.25 187.569 89.892 187.569 89.1932C187.569 88.4261 188.267 88.1875 189.051 88.0852C189.478 88.0341 190.62 87.9148 190.79 87.7102V88.6307C190.79 89.4489 190.142 90.25 188.949 90.25ZM198.268 85.9205C197.952 84.9915 197.245 84.3693 195.95 84.3693C194.569 84.3693 193.546 85.1534 193.546 86.2614C193.546 87.1648 194.083 87.7699 195.285 88.0511L196.376 88.3068C197.036 88.4602 197.347 88.7756 197.347 89.2273C197.347 89.7898 196.751 90.25 195.813 90.25C194.991 90.25 194.475 89.8963 194.296 89.1932L193.342 89.4318C193.576 90.544 194.492 91.1364 195.83 91.1364C197.352 91.1364 198.387 90.3054 198.387 89.1761C198.387 88.2642 197.816 87.6889 196.648 87.4034L195.677 87.1648C194.901 86.973 194.552 86.7131 194.552 86.2102C194.552 85.6477 195.148 85.2386 195.95 85.2386C196.827 85.2386 197.19 85.7244 197.364 86.1761L198.268 85.9205ZM202.748 84.4545H201.35V82.8864H200.344V84.4545H199.355V85.3068H200.344V89.3977C200.344 90.5398 201.265 91.0852 202.117 91.0852C202.492 91.0852 202.73 91.017 202.867 90.9659L202.662 90.0625C202.577 90.0795 202.441 90.1136 202.219 90.1136C201.776 90.1136 201.35 89.9773 201.35 89.125V85.3068H202.748V84.4545ZM206.934 91.1364C208.264 91.1364 209.235 90.4716 209.542 89.483L208.571 89.2102C208.315 89.892 207.723 90.233 206.934 90.233C205.754 90.233 204.94 89.4702 204.893 88.0682H209.645V87.642C209.645 85.2045 208.196 84.3693 206.832 84.3693C205.059 84.3693 203.883 85.767 203.883 87.7784C203.883 89.7898 205.042 91.1364 206.934 91.1364ZM204.893 87.1989C204.961 86.1804 205.681 85.2727 206.832 85.2727C207.923 85.2727 208.622 86.0909 208.622 87.1989H204.893ZM215.197 93.4545C216.105 93.4545 216.744 92.973 217.123 91.9545L219.91 84.4716L218.811 84.4545L217.004 89.6705H216.936L215.129 84.4545H214.038L216.458 91.0341L216.271 91.5455C215.904 92.5426 215.453 92.6364 214.72 92.4489L214.464 93.3352C214.566 93.3864 214.856 93.4545 215.197 93.4545ZM223.665 91.1364C225.438 91.1364 226.631 89.7898 226.631 87.7614C226.631 85.7159 225.438 84.3693 223.665 84.3693C221.893 84.3693 220.7 85.7159 220.7 87.7614C220.7 89.7898 221.893 91.1364 223.665 91.1364ZM223.665 90.233C222.319 90.233 221.705 89.0739 221.705 87.7614C221.705 86.4489 222.319 85.2727 223.665 85.2727C225.012 85.2727 225.626 86.4489 225.626 87.7614C225.626 89.0739 225.012 90.233 223.665 90.233ZM232.292 88.3239C232.292 89.5511 231.354 90.1136 230.604 90.1136C229.769 90.1136 229.172 89.5 229.172 88.5455V84.4545H228.167V88.6136C228.167 90.2841 229.053 91.0852 230.28 91.0852C231.269 91.0852 231.917 90.5568 232.223 89.892H232.292V91H233.297V84.4545H232.292V88.3239ZM235.139 91H236.145V86.858C236.145 85.9716 236.844 85.3239 237.798 85.3239C238.067 85.3239 238.344 85.375 238.412 85.392V84.3693C238.297 84.3608 238.033 84.3523 237.884 84.3523C237.099 84.3523 236.418 84.7955 236.179 85.4432H236.111V84.4545H235.139V91ZM245.826 84.4545H244.428V82.8864H243.422V84.4545H242.434V85.3068H243.422V89.3977C243.422 90.5398 244.343 91.0852 245.195 91.0852C245.57 91.0852 245.809 91.017 245.945 90.9659L245.74 90.0625C245.655 90.0795 245.519 90.1136 245.297 90.1136C244.854 90.1136 244.428 89.9773 244.428 89.125V85.3068H245.826V84.4545ZM247.338 91H248.344V84.4545H247.338V91ZM247.85 83.3636C248.242 83.3636 248.566 83.0568 248.566 82.6818C248.566 82.3068 248.242 82 247.85 82C247.458 82 247.134 82.3068 247.134 82.6818C247.134 83.0568 247.458 83.3636 247.85 83.3636ZM250.186 91H251.192V86.9091C251.192 85.9503 251.891 85.2727 252.675 85.2727C253.438 85.2727 253.97 85.7713 253.97 86.517V91H254.993V86.7386C254.993 85.8949 255.521 85.2727 256.442 85.2727C257.158 85.2727 257.771 85.652 257.771 86.6193V91H258.777V86.6193C258.777 85.081 257.95 84.3693 256.783 84.3693C255.845 84.3693 255.159 84.7997 254.822 85.4773H254.754C254.43 84.7784 253.859 84.3693 252.999 84.3693C252.146 84.3693 251.516 84.7784 251.243 85.4773H251.158V84.4545H250.186V91ZM263.36 91.1364C264.69 91.1364 265.661 90.4716 265.968 89.483L264.996 89.2102C264.741 89.892 264.148 90.233 263.36 90.233C262.18 90.233 261.366 89.4702 261.319 88.0682H266.07V87.642C266.07 85.2045 264.621 84.3693 263.258 84.3693C261.485 84.3693 260.309 85.767 260.309 87.7784C260.309 89.7898 261.468 91.1364 263.36 91.1364ZM261.319 87.1989C261.387 86.1804 262.107 85.2727 263.258 85.2727C264.349 85.2727 265.048 86.0909 265.048 87.1989H261.319ZM273.634 91.1364C275.407 91.1364 276.6 89.7898 276.6 87.7614C276.6 85.7159 275.407 84.3693 273.634 84.3693C271.862 84.3693 270.668 85.7159 270.668 87.7614C270.668 89.7898 271.862 91.1364 273.634 91.1364ZM273.634 90.233C272.288 90.233 271.674 89.0739 271.674 87.7614C271.674 86.4489 272.288 85.2727 273.634 85.2727C274.981 85.2727 275.594 86.4489 275.594 87.7614C275.594 89.0739 274.981 90.233 273.634 90.233ZM279.141 87.0625C279.141 85.9205 279.848 85.2727 280.811 85.2727C281.745 85.2727 282.311 85.8821 282.311 86.9091V91H283.317V86.8409C283.317 85.1705 282.426 84.3693 281.101 84.3693C280.113 84.3693 279.499 84.8125 279.192 85.4773H279.107V84.4545H278.135V91H279.141V87.0625ZM293.166 85.9205C292.851 84.9915 292.143 84.3693 290.848 84.3693C289.467 84.3693 288.445 85.1534 288.445 86.2614C288.445 87.1648 288.982 87.7699 290.183 88.0511L291.274 88.3068C291.935 88.4602 292.246 88.7756 292.246 89.2273C292.246 89.7898 291.649 90.25 290.712 90.25C289.889 90.25 289.374 89.8963 289.195 89.1932L288.24 89.4318C288.474 90.544 289.391 91.1364 290.729 91.1364C292.25 91.1364 293.286 90.3054 293.286 89.1761C293.286 88.2642 292.714 87.6889 291.547 87.4034L290.575 87.1648C289.8 86.973 289.45 86.7131 289.45 86.2102C289.45 85.6477 290.047 85.2386 290.848 85.2386C291.726 85.2386 292.088 85.7244 292.263 86.1761L293.166 85.9205ZM297.458 91.1364C298.907 91.1364 299.862 90.25 300.032 89.0909H299.027C298.839 89.8068 298.243 90.233 297.458 90.233C296.265 90.233 295.498 89.2443 295.498 87.7273C295.498 86.2443 296.282 85.2727 297.458 85.2727C298.345 85.2727 298.873 85.8182 299.027 86.4148H300.032C299.862 85.1875 298.822 84.3693 297.441 84.3693C295.669 84.3693 294.493 85.767 294.493 87.7614C294.493 89.7216 295.618 91.1364 297.458 91.1364ZM301.502 91H302.508V86.858C302.508 85.9716 303.207 85.3239 304.162 85.3239C304.43 85.3239 304.707 85.375 304.775 85.392V84.3693C304.66 84.3608 304.396 84.3523 304.247 84.3523C303.463 84.3523 302.781 84.7955 302.542 85.4432H302.474V84.4545H301.502V91ZM308.512 91.1364C309.842 91.1364 310.814 90.4716 311.12 89.483L310.149 89.2102C309.893 89.892 309.301 90.233 308.512 90.233C307.332 90.233 306.518 89.4702 306.471 88.0682H311.223V87.642C311.223 85.2045 309.774 84.3693 308.41 84.3693C306.637 84.3693 305.461 85.767 305.461 87.7784C305.461 89.7898 306.62 91.1364 308.512 91.1364ZM306.471 87.1989C306.539 86.1804 307.26 85.2727 308.41 85.2727C309.501 85.2727 310.2 86.0909 310.2 87.1989H306.471ZM315.497 91.1364C316.826 91.1364 317.798 90.4716 318.105 89.483L317.133 89.2102C316.877 89.892 316.285 90.233 315.497 90.233C314.316 90.233 313.502 89.4702 313.456 88.0682H318.207V87.642C318.207 85.2045 316.758 84.3693 315.395 84.3693C313.622 84.3693 312.446 85.767 312.446 87.7784C312.446 89.7898 313.605 91.1364 315.497 91.1364ZM313.456 87.1989C313.524 86.1804 314.244 85.2727 315.395 85.2727C316.485 85.2727 317.184 86.0909 317.184 87.1989H313.456ZM320.743 87.0625C320.743 85.9205 321.45 85.2727 322.413 85.2727C323.346 85.2727 323.913 85.8821 323.913 86.9091V91H324.919V86.8409C324.919 85.1705 324.028 84.3693 322.703 84.3693C321.714 84.3693 321.1 84.8125 320.794 85.4773H320.708V84.4545H319.737V91H320.743V87.0625ZM326.756 91H327.762V84.4545H326.756V91ZM327.268 83.3636C327.66 83.3636 327.984 83.0568 327.984 82.6818C327.984 82.3068 327.66 82 327.268 82C326.876 82 326.552 82.3068 326.552 82.6818C326.552 83.0568 326.876 83.3636 327.268 83.3636ZM330.61 87.0625C330.61 85.9205 331.317 85.2727 332.28 85.2727C333.213 85.2727 333.78 85.8821 333.78 86.9091V91H334.786V86.8409C334.786 85.1705 333.895 84.3693 332.57 84.3693C331.581 84.3693 330.968 84.8125 330.661 85.4773H330.576V84.4545H329.604V91H330.61V87.0625ZM339.266 93.5909C340.834 93.5909 342.095 92.875 342.095 91.1875V84.4545H341.124V85.4943H341.021C340.8 85.1534 340.391 84.3693 339.112 84.3693C337.459 84.3693 336.317 85.6818 336.317 87.6932C336.317 89.7386 337.51 90.8977 339.095 90.8977C340.374 90.8977 340.783 90.1477 341.004 89.7898H341.089V91.1193C341.089 92.2102 340.322 92.7045 339.266 92.7045C338.077 92.7045 337.659 92.0781 337.391 91.7159L336.589 92.2784C336.999 92.9645 337.804 93.5909 339.266 93.5909ZM339.232 89.9943C337.97 89.9943 337.322 89.0398 337.322 87.6761C337.322 86.3466 337.953 85.2727 339.232 85.2727C340.459 85.2727 341.107 86.2614 341.107 87.6761C341.107 89.125 340.442 89.9943 339.232 89.9943ZM151.08 100C150.756 98.2102 149.324 97.1534 147.568 97.1534C145.335 97.1534 143.716 98.875 143.716 101.636C143.716 104.398 145.335 106.119 147.568 106.119C149.324 106.119 150.756 105.062 151.08 103.273H150.023C149.767 104.483 148.727 105.131 147.568 105.131C145.983 105.131 144.739 103.903 144.739 101.636C144.739 99.3693 145.983 98.142 147.568 98.142C148.727 98.142 149.767 98.7898 150.023 100H151.08ZM153.145 97.2727H152.037L155.242 106H156.333L159.537 97.2727H158.429L155.838 104.619H155.736L153.145 97.2727ZM164.846 100.92C164.531 99.9915 163.823 99.3693 162.528 99.3693C161.147 99.3693 160.124 100.153 160.124 101.261C160.124 102.165 160.661 102.77 161.863 103.051L162.954 103.307C163.614 103.46 163.925 103.776 163.925 104.227C163.925 104.79 163.329 105.25 162.391 105.25C161.569 105.25 161.053 104.896 160.874 104.193L159.92 104.432C160.154 105.544 161.07 106.136 162.408 106.136C163.93 106.136 164.965 105.305 164.965 104.176C164.965 103.264 164.394 102.689 163.227 102.403L162.255 102.165C161.479 101.973 161.13 101.713 161.13 101.21C161.13 100.648 161.727 100.239 162.528 100.239C163.406 100.239 163.768 100.724 163.942 101.176L164.846 100.92ZM171.78 106.153C172.922 106.153 173.519 105.54 173.723 105.114H173.775V106H174.78V101.688C174.78 99.608 173.195 99.3693 172.36 99.3693C171.371 99.3693 170.246 99.7102 169.735 100.903L170.689 101.244C170.911 100.767 171.435 100.256 172.394 100.256C173.319 100.256 173.775 100.746 173.775 101.585V101.619C173.775 102.105 173.28 102.062 172.087 102.216C170.873 102.374 169.547 102.642 169.547 104.142C169.547 105.42 170.536 106.153 171.78 106.153ZM171.934 105.25C171.132 105.25 170.553 104.892 170.553 104.193C170.553 103.426 171.252 103.188 172.036 103.085C172.462 103.034 173.604 102.915 173.775 102.71V103.631C173.775 104.449 173.127 105.25 171.934 105.25ZM177.621 102.062C177.621 100.92 178.329 100.273 179.292 100.273C180.225 100.273 180.792 100.882 180.792 101.909V106H181.798V101.841C181.798 100.17 180.907 99.3693 179.582 99.3693C178.593 99.3693 177.979 99.8125 177.673 100.477H177.587V99.4545H176.616V106H177.621V102.062ZM186.107 106.136C187.368 106.136 187.794 105.352 188.016 104.994H188.135V106H189.107V97.2727H188.101V100.494H188.016C187.794 100.153 187.402 99.3693 186.124 99.3693C184.471 99.3693 183.328 100.682 183.328 102.744C183.328 104.824 184.471 106.136 186.107 106.136ZM186.243 105.233C184.982 105.233 184.334 104.125 184.334 102.727C184.334 101.347 184.965 100.273 186.243 100.273C187.471 100.273 188.118 101.261 188.118 102.727C188.118 104.21 187.453 105.233 186.243 105.233ZM194.463 108.455H195.469V104.994H195.554C195.776 105.352 196.202 106.136 197.463 106.136C199.1 106.136 200.242 104.824 200.242 102.744C200.242 100.682 199.1 99.3693 197.446 99.3693C196.168 99.3693 195.776 100.153 195.554 100.494H195.435V99.4545H194.463V108.455ZM195.452 102.727C195.452 101.261 196.1 100.273 197.327 100.273C198.605 100.273 199.236 101.347 199.236 102.727C199.236 104.125 198.588 105.233 197.327 105.233C196.117 105.233 195.452 104.21 195.452 102.727ZM201.776 106H202.782V101.858C202.782 100.972 203.48 100.324 204.435 100.324C204.703 100.324 204.98 100.375 205.049 100.392V99.3693C204.934 99.3608 204.669 99.3523 204.52 99.3523C203.736 99.3523 203.054 99.7955 202.816 100.443H202.748V99.4545H201.776V106ZM208.786 106.136C210.115 106.136 211.087 105.472 211.394 104.483L210.422 104.21C210.167 104.892 209.574 105.233 208.786 105.233C207.605 105.233 206.792 104.47 206.745 103.068H211.496V102.642C211.496 100.205 210.047 99.3693 208.684 99.3693C206.911 99.3693 205.735 100.767 205.735 102.778C205.735 104.79 206.894 106.136 208.786 106.136ZM206.745 102.199C206.813 101.18 207.533 100.273 208.684 100.273C209.775 100.273 210.473 101.091 210.473 102.199H206.745ZM216.776 101.79H212.958V102.727H216.776V101.79ZM224.017 108.455V99.4545H223.045V100.494H222.926C222.705 100.153 222.312 99.3693 221.034 99.3693C219.381 99.3693 218.239 100.682 218.239 102.744C218.239 104.824 219.381 106.136 221.017 106.136C222.278 106.136 222.705 105.352 222.926 104.994H223.011V108.455H224.017ZM223.028 102.727C223.028 104.21 222.364 105.233 221.153 105.233C219.892 105.233 219.244 104.125 219.244 102.727C219.244 101.347 219.875 100.273 221.153 100.273C222.381 100.273 223.028 101.261 223.028 102.727ZM229.983 103.324C229.983 104.551 229.045 105.114 228.295 105.114C227.46 105.114 226.864 104.5 226.864 103.545V99.4545H225.858V103.614C225.858 105.284 226.744 106.085 227.972 106.085C228.96 106.085 229.608 105.557 229.915 104.892H229.983V106H230.989V99.4545H229.983V103.324ZM234.757 106.153C235.899 106.153 236.495 105.54 236.7 105.114H236.751V106H237.757V101.688C237.757 99.608 236.172 99.3693 235.336 99.3693C234.348 99.3693 233.223 99.7102 232.711 100.903L233.666 101.244C233.887 100.767 234.412 100.256 235.37 100.256C236.295 100.256 236.751 100.746 236.751 101.585V101.619C236.751 102.105 236.257 102.062 235.064 102.216C233.849 102.374 232.524 102.642 232.524 104.142C232.524 105.42 233.512 106.153 234.757 106.153ZM234.91 105.25C234.109 105.25 233.529 104.892 233.529 104.193C233.529 103.426 234.228 103.188 235.012 103.085C235.439 103.034 236.581 102.915 236.751 102.71V103.631C236.751 104.449 236.103 105.25 234.91 105.25ZM240.598 97.2727H239.592V106H240.598V97.2727ZM242.44 106H243.446V99.4545H242.44V106ZM242.951 98.3636C243.343 98.3636 243.667 98.0568 243.667 97.6818C243.667 97.3068 243.343 97 242.951 97C242.559 97 242.235 97.3068 242.235 97.6818C242.235 98.0568 242.559 98.3636 242.951 98.3636ZM248.202 99.4545H246.737V98.7898C246.737 98.142 247.009 97.8011 247.674 97.8011C247.964 97.8011 248.134 97.8693 248.237 97.9034L248.526 97.0341C248.373 96.9659 248.066 96.8636 247.572 96.8636C246.634 96.8636 245.731 97.4261 245.731 98.5511V99.4545H244.674V100.307H245.731V106H246.737V100.307H248.202V99.4545ZM250.26 108.455C251.167 108.455 251.806 107.973 252.186 106.955L254.973 99.4716L253.873 99.4545L252.066 104.67H251.998L250.191 99.4545H249.1L251.521 106.034L251.333 106.545C250.967 107.543 250.515 107.636 249.782 107.449L249.527 108.335C249.629 108.386 249.919 108.455 250.26 108.455ZM256.303 106H257.309V99.4545H256.303V106ZM256.815 98.3636C257.207 98.3636 257.531 98.0568 257.531 97.6818C257.531 97.3068 257.207 97 256.815 97C256.423 97 256.099 97.3068 256.099 97.6818C256.099 98.0568 256.423 98.3636 256.815 98.3636ZM260.157 102.062C260.157 100.92 260.864 100.273 261.827 100.273C262.76 100.273 263.327 100.882 263.327 101.909V106H264.333V101.841C264.333 100.17 263.442 99.3693 262.117 99.3693C261.128 99.3693 260.515 99.8125 260.208 100.477H260.123V99.4545H259.151V106H260.157V102.062ZM268.812 108.591C270.381 108.591 271.642 107.875 271.642 106.188V99.4545H270.67V100.494H270.568C270.347 100.153 269.938 99.3693 268.659 99.3693C267.006 99.3693 265.864 100.682 265.864 102.693C265.864 104.739 267.057 105.898 268.642 105.898C269.92 105.898 270.33 105.148 270.551 104.79H270.636V106.119C270.636 107.21 269.869 107.705 268.812 107.705C267.624 107.705 267.206 107.078 266.938 106.716L266.136 107.278C266.545 107.964 267.351 108.591 268.812 108.591ZM268.778 104.994C267.517 104.994 266.869 104.04 266.869 102.676C266.869 101.347 267.5 100.273 268.778 100.273C270.006 100.273 270.653 101.261 270.653 102.676C270.653 104.125 269.989 104.994 268.778 104.994ZM276.858 106H277.864V99.4545H276.858V106ZM277.369 98.3636C277.761 98.3636 278.085 98.0568 278.085 97.6818C278.085 97.3068 277.761 97 277.369 97C276.977 97 276.653 97.3068 276.653 97.6818C276.653 98.0568 276.977 98.3636 277.369 98.3636ZM280.711 102.062C280.711 100.92 281.419 100.273 282.382 100.273C283.315 100.273 283.882 100.882 283.882 101.909V106H284.887V101.841C284.887 100.17 283.997 99.3693 282.672 99.3693C281.683 99.3693 281.069 99.8125 280.762 100.477H280.677V99.4545H279.706V106H280.711V102.062ZM289.572 99.4545H288.174V97.8864H287.168V99.4545H286.18V100.307H287.168V104.398C287.168 105.54 288.089 106.085 288.941 106.085C289.316 106.085 289.555 106.017 289.691 105.966L289.487 105.062C289.401 105.08 289.265 105.114 289.043 105.114C288.6 105.114 288.174 104.977 288.174 104.125V100.307H289.572V99.4545ZM293.759 106.136C295.088 106.136 296.06 105.472 296.366 104.483L295.395 104.21C295.139 104.892 294.547 105.233 293.759 105.233C292.578 105.233 291.764 104.47 291.717 103.068H296.469V102.642C296.469 100.205 295.02 99.3693 293.656 99.3693C291.884 99.3693 290.707 100.767 290.707 102.778C290.707 104.79 291.866 106.136 293.759 106.136ZM291.717 102.199C291.786 101.18 292.506 100.273 293.656 100.273C294.747 100.273 295.446 101.091 295.446 102.199H291.717ZM297.999 106H299.004V101.858C299.004 100.972 299.703 100.324 300.658 100.324C300.926 100.324 301.203 100.375 301.271 100.392V99.3693C301.156 99.3608 300.892 99.3523 300.743 99.3523C299.959 99.3523 299.277 99.7955 299.038 100.443H298.97V99.4545H297.999V106ZM308.015 99.4545H306.924L305.117 104.67H305.049L303.242 99.4545H302.151L304.572 106H305.594L308.015 99.4545ZM309.342 106H310.348V99.4545H309.342V106ZM309.854 98.3636C310.246 98.3636 310.57 98.0568 310.57 97.6818C310.57 97.3068 310.246 97 309.854 97C309.462 97 309.138 97.3068 309.138 97.6818C309.138 98.0568 309.462 98.3636 309.854 98.3636ZM314.934 106.136C316.264 106.136 317.235 105.472 317.542 104.483L316.571 104.21C316.315 104.892 315.723 105.233 314.934 105.233C313.754 105.233 312.94 104.47 312.893 103.068H317.645V102.642C317.645 100.205 316.196 99.3693 314.832 99.3693C313.059 99.3693 311.883 100.767 311.883 102.778C311.883 104.79 313.042 106.136 314.934 106.136ZM312.893 102.199C312.961 101.18 313.681 100.273 314.832 100.273C315.923 100.273 316.622 101.091 316.622 102.199H312.893ZM320.657 106H321.646L323.078 100.972H323.18L324.612 106H325.6L327.595 99.4545H326.538L325.123 104.449H325.055L323.674 99.4545H322.6L321.203 104.466H321.135L319.72 99.4545H318.663L320.657 106ZM333.561 100.92C333.245 99.9915 332.538 99.3693 331.243 99.3693C329.862 99.3693 328.839 100.153 328.839 101.261C328.839 102.165 329.376 102.77 330.578 103.051L331.669 103.307C332.329 103.46 332.64 103.776 332.64 104.227C332.64 104.79 332.044 105.25 331.106 105.25C330.284 105.25 329.768 104.896 329.589 104.193L328.635 104.432C328.869 105.544 329.785 106.136 331.123 106.136C332.645 106.136 333.68 105.305 333.68 104.176C333.68 103.264 333.109 102.689 331.941 102.403L330.97 102.165C330.194 101.973 329.845 101.713 329.845 101.21C329.845 100.648 330.441 100.239 331.243 100.239C332.12 100.239 332.483 100.724 332.657 101.176L333.561 100.92Z" fill="black" fill-opacity="0.6"/>
<circle cx="102" cy="83" r="24" stroke="white" stroke-opacity="0.07" stroke-width="2"/>
<path d="M102 59C115.255 59 126 69.7452 126 83C126 96.2548 115.255 107 102 107C88.7452 107 78 96.2548 78 83C78 78.4262 79.2795 74.1511 81.5 70.5134" stroke="black" stroke-width="2" stroke-linecap="round"/>
<path d="M92.7202 87.1193C94.4759 87.1193 95.7287 85.8793 95.7244 84.179C95.7287 82.4915 94.5526 81.2642 92.9631 81.2642C92.3153 81.2642 91.7145 81.5114 91.3736 81.8438H91.3224L91.5994 79.402H95.3026V78.2727H90.5043L90.0142 82.6705L91.2202 82.8494C91.5483 82.5554 92.1364 82.3551 92.6648 82.3551C93.7003 82.3636 94.4503 83.1392 94.4503 84.2045C94.4503 85.2528 93.7216 86.0114 92.7202 86.0114C91.8764 86.0114 91.2074 85.4744 91.1392 84.7244H89.8608C89.9119 86.1136 91.1179 87.1193 92.7202 87.1193ZM97.5749 87H98.9513L102.748 79.4403V78.2727H96.9783V79.402H101.385V79.4659L97.5749 87ZM108.786 85.3636C108.79 86.348 109.408 87.179 110.562 87.179C111.705 87.179 112.331 86.348 112.331 85.3636V84.9034C112.331 83.9148 111.722 83.0881 110.562 83.0881C109.425 83.0881 108.79 83.919 108.786 84.9034V85.3636ZM104.396 80.3693C104.396 81.3537 105.018 82.1847 106.173 82.1847C107.311 82.1847 107.942 81.358 107.938 80.3693V79.9091C107.942 78.9205 107.328 78.0938 106.173 78.0938C105.04 78.0938 104.396 78.9205 104.396 79.9091V80.3693ZM104.754 87H105.773L111.773 78.2727H110.754L104.754 87ZM109.778 84.9034C109.783 84.4134 109.996 83.9403 110.562 83.9403C111.151 83.9403 111.334 84.4134 111.334 84.9034V85.3636C111.334 85.8537 111.134 86.3267 110.562 86.3267C109.983 86.3267 109.783 85.8494 109.778 85.3636V84.9034ZM105.393 79.9091C105.393 79.4233 105.607 78.946 106.173 78.946C106.761 78.946 106.945 79.419 106.945 79.9091V80.3693C106.945 80.8594 106.744 81.3324 106.173 81.3324C105.594 81.3324 105.393 80.8594 105.393 80.3693V79.9091Z" fill="#101010"/>
<defs>
<filter id="filter0_d_153_789" x="0" y="0" width="438" height="195" filterUnits="userSpaceOnUse" color-interpolation-filters="sRGB">
<feFlood flood-opacity="0" result="BackgroundImageFix"/>
<feColorMatrix in="SourceAlpha" type="matrix" values="0 0 0 0 0 0 0 0 0 0 0 0 0 0 0 0 0 0 127 0" result="hardAlpha"/>
<feOffset dy="0"/>
<feGaussianBlur stdDeviation="27.5"/>
<feComposite in2="hardAlpha" operator="out"/>
<feColorMatrix type="matrix" values="0 0 0 0 0 0 0 0 0 0 0 0 0 0 0 0 0 0 0.07 0"/>
<feBlend mode="normal" in2="BackgroundImageFix" result="effect1_dropShadow_153_789"/>
<feBlend mode="normal" in="SourceGraphic" in2="effect1_dropShadow_153_789" result="shape"/>
</filter>
</defs>
</svg>
