<svg width="51" height="50" viewBox="0 0 51 50" fill="none" xmlns="http://www.w3.org/2000/svg">
<mask id="mask0_328_3840" style="mask-type:alpha" maskUnits="userSpaceOnUse" x="2" y="2" width="47" height="46">
<path d="M3.12422 27.1011C1.81932 14.7434 10.7794 3.66762 23.1371 2.36273C35.4948 1.05783 46.5705 10.0179 47.8754 22.3756C49.1803 34.7333 40.2203 45.809 27.8625 47.1139C15.5048 48.4188 4.42912 39.4588 3.12422 27.1011Z" fill="white"/>
</mask>
<g mask="url(#mask0_328_3840)">
<path d="M0.761494 4.72545L45.5127 0L50.2381 44.7512L5.48695 49.4767L0.761494 4.72545Z" fill="#A3A948"/>
<path d="M45.4969 5.17359C57.4103 14.1419 59.7977 31.0698 50.8294 42.9832C41.8611 54.8965 24.9331 57.2839 13.0198 48.3156C1.10645 39.3473 -1.28098 22.4194 7.68733 10.5061C16.6556 -1.4073 33.5836 -3.79472 45.4969 5.17359Z" fill="white"/>
<path d="M31.4492 28.9202C31.4281 30.1632 30.7495 31.3441 29.5627 32.2032C28.3758 33.0623 26.7779 33.5291 25.1206 33.5009C23.4632 33.4728 21.8821 32.952 20.7251 32.0532C19.5681 31.1544 18.9299 29.9511 18.951 28.7081" fill="#161C2D"/>
<path d="M30.9517 21.4109C30.9634 20.7206 31.3926 20.1682 31.9103 20.177C32.428 20.1857 32.8382 20.7524 32.8264 21.4427C32.8147 22.1329 32.3856 22.6854 31.8679 22.6766C31.3502 22.6678 30.94 22.1011 30.9517 21.4109Z" fill="#161C2D"/>
<path d="M18.4537 21.1987C18.4654 20.5085 18.8946 19.956 19.4122 19.9648C19.9299 19.9736 20.3401 20.5403 20.3284 21.2305C20.3167 21.9208 19.8875 22.4732 19.3698 22.4644C18.8521 22.4557 18.442 21.889 18.4537 21.1987Z" fill="#161C2D"/>
</g>
</svg>
