<svg width="179" height="59" viewBox="0 0 179 59" fill="none" xmlns="http://www.w3.org/2000/svg">
<path d="M11.7467 1.47021C5.87391 6.80912 -2.29629 12.0246 2.39391 20.721C7.89607 30.9229 23.0245 34.3643 33.7237 34.1001C41.426 33.9099 56.1389 31.5064 60.7335 24.2021C64.4408 18.3084 59.165 13.5241 53.7713 12.1232C48.0432 10.6353 38.77 12.4575 34.185 16.2334C28.3644 21.0268 28.4078 31.8525 32.801 37.4134C44.5545 52.2914 64.5574 56.2081 82.3749 57.2514C101.979 58.3993 122.138 57.7631 141.595 55.0705C154.225 53.3228 165.641 49.3605 177.832 46.0113" stroke="url(#paint0_linear_153_831)" stroke-linecap="round"/>
<defs>
<linearGradient id="paint0_linear_153_831" x1="1" y1="0.999997" x2="178" y2="0.999997" gradientUnits="userSpaceOnUse">
<stop/>
<stop offset="1" stop-opacity="0"/>
</linearGradient>
</defs>
</svg>
