<svg width="30" height="30" viewBox="0 0 30 30" fill="none" xmlns="http://www.w3.org/2000/svg">
<path d="M27.5 15V11.25C27.5 5 25 2.5 18.75 2.5H11.25C5 2.5 2.5 5 2.5 11.25V18.75C2.5 25 5 27.5 11.25 27.5H15" stroke="black" stroke-width="1.5" stroke-linecap="round" stroke-linejoin="round"/>
<path d="M26.1991 22.3L24.1616 22.9875C23.5991 23.175 23.1491 23.6125 22.9616 24.1875L22.2741 26.225C21.6866 27.9875 19.2116 27.95 18.6616 26.1875L16.3491 18.75C15.8991 17.275 17.2616 15.9 18.7241 16.3625L26.1741 18.675C27.9241 19.225 27.9491 21.7125 26.1991 22.3Z" stroke="black" stroke-width="1.5" stroke-linecap="round" stroke-linejoin="round"/>
</svg>
